<svg xmlns="http://www.w3.org/2000/svg" xmlns:xlink="http://www.w3.org/1999/xlink" contentStyleType="text/css" data-diagram-type="SEQUENCE" height="1187px" preserveAspectRatio="none" style="width:1082px;height:1187px;background:#FFFFFF;" version="1.1" viewBox="0 0 1082 1187" width="1082px" zoomAndPan="magnify"><title>Risk Assessment Process Flow</title><defs/><g><text fill="#000000" font-family="Times New Roman" font-size="14" font-weight="bold" lengthAdjust="spacing" textLength="240.4063" x="422.415" y="28.9951">Risk Assessment Process Flow</text><g><title>Scoping</title><rect fill="#FFFFFF" height="994.2891" style="stroke:#181818;stroke-width:1;" width="10" x="342.7173" y="176.6797"/></g><g><title>Risk Identification</title><rect fill="#FFFFFF" height="33.4609" style="stroke:#181818;stroke-width:1;" width="10" x="635.1602" y="271.5234"/></g><g><title>Risk</title><rect fill="#FFFFFF" height="33.4609" style="stroke:#181818;stroke-width:1;" width="10" x="764.5017" y="399.8281"/></g><g><title>Risk</title><rect fill="#FFFFFF" height="33.4609" style="stroke:#181818;stroke-width:1;" width="10" x="764.5017" y="466.75"/></g><g><title>Clarification</title><rect fill="#FFFFFF" height="33.4609" style="stroke:#181818;stroke-width:1;" width="10" x="871.6326" y="701.9766"/></g><g><title>Document</title><rect fill="#FFFFFF" height="33.4609" style="stroke:#181818;stroke-width:1;" width="10" x="983.3813" y="875.7422"/></g><rect fill="#FFFFFF" height="792.9844" rx="7.5" ry="7.5" style="stroke:#000000;stroke-width:1.5;" width="1066.2363" x="10" y="191.6797"/><rect fill="#FFFFFF" height="757.5234" rx="7.5" ry="7.5" style="stroke:#000000;stroke-width:1.5;" width="1046.2363" x="20" y="220.1406"/><rect fill="#FFFFFF" height="288.1484" rx="7.5" ry="7.5" style="stroke:#000000;stroke-width:1.5;" width="558.3257" x="274.4131" y="319.9844"/><rect fill="#FFFFFF" height="252.6875" rx="7.5" ry="7.5" style="stroke:#000000;stroke-width:1.5;" width="538.3257" x="284.4131" y="348.4453"/><rect fill="#FFFFFF" height="348.5313" rx="7.5" ry="7.5" style="stroke:#000000;stroke-width:1.5;" width="1026.2363" x="30" y="622.1328"/><rect fill="#FFFFFF" height="308.6094" rx="7.5" ry="7.5" style="stroke:#000000;stroke-width:1.5;" width="1006.2363" x="40" y="655.0547"/><rect fill="#FFFFFF" height="92.8438" rx="7.5" ry="7.5" style="stroke:#000000;stroke-width:1.5;" width="361.0215" x="50" y="750.4375"/><rect fill="#FFFFFF" height="165.3047" rx="7.5" ry="7.5" style="stroke:#000000;stroke-width:1.5;" width="578.1851" x="50" y="998.6641"/><g><title>User</title><rect fill="transparent" height="1057.2109" width="8" x="77.0947" y="123.7578"/><line style="stroke:#181818;stroke-width:0.5;stroke-dasharray:5.0,5.0;" x1="81" x2="81" y1="123.7578" y2="1180.9688"/></g><g><title>Scoping</title><rect fill="transparent" height="1057.2109" width="8" x="343.7173" y="123.7578"/><line style="stroke:#181818;stroke-width:0.5;stroke-dasharray:5.0,5.0;" x1="347.4131" x2="347.4131" y1="123.7578" y2="1180.9688"/></g><g><title>Risk Identification</title><rect fill="transparent" height="1057.2109" width="8" x="636.1602" y="123.7578"/><line style="stroke:#181818;stroke-width:0.5;stroke-dasharray:5.0,5.0;" x1="640.0557" x2="640.0557" y1="123.7578" y2="1180.9688"/></g><g><title>Risk</title><rect fill="transparent" height="1057.2109" width="8" x="765.5017" y="123.7578"/><line style="stroke:#181818;stroke-width:0.5;stroke-dasharray:5.0,5.0;" x1="769.2646" x2="769.2646" y1="123.7578" y2="1180.9688"/></g><g><title>Clarification</title><rect fill="transparent" height="1057.2109" width="8" x="872.6326" y="123.7578"/><line style="stroke:#181818;stroke-width:0.5;stroke-dasharray:5.0,5.0;" x1="875.7388" x2="875.7388" y1="123.7578" y2="1180.9688"/></g><g><title>Document</title><rect fill="transparent" height="1057.2109" width="8" x="984.3813" y="123.7578"/><line style="stroke:#181818;stroke-width:0.5;stroke-dasharray:5.0,5.0;" x1="987.5264" x2="987.5264" y1="123.7578" y2="1180.9688"/></g><text fill="#000000" font-family="Times New Roman" font-size="15" lengthAdjust="spacing" textLength="34.1895" x="61" y="119.2202">User</text><ellipse cx="81.0947" cy="52.7969" fill="#E3E3E3" rx="8" ry="8" style="stroke:#181818;stroke-width:0.5;"/><path d="M81.0947,60.7969 L81.0947,87.7969 M68.0947,68.7969 L94.0947,68.7969 M81.0947,87.7969 L68.0947,102.7969 M81.0947,87.7969 L94.0947,102.7969 " fill="transparent" style="stroke:#181818;stroke-width:0.5;"/><rect fill="#FFFFFF" height="50.9219" rx="7.5" ry="7.5" style="stroke:#181818;stroke-width:0.5;" width="104.6084" x="295.4131" y="71.8359"/><text fill="#000000" font-family="Times New Roman" font-size="15" lengthAdjust="spacing" textLength="59.6631" x="317.8857" y="93.7593">Scoping</text><text fill="#000000" font-family="Times New Roman" font-size="15" lengthAdjust="spacing" textLength="88.6084" x="303.4131" y="111.2202">Coordinator</text><rect fill="#FFFFFF" height="50.9219" rx="7.5" ry="7.5" style="stroke:#181818;stroke-width:0.5;" width="150.209" x="565.0557" y="71.8359"/><text fill="#000000" font-family="Times New Roman" font-size="15" lengthAdjust="spacing" textLength="134.209" x="573.0557" y="93.7593">Risk Identification</text><text fill="#000000" font-family="Times New Roman" font-size="15" lengthAdjust="spacing" textLength="44.3994" x="617.9604" y="111.2202">Agent</text><rect fill="#FFFFFF" height="50.9219" rx="7.5" ry="7.5" style="stroke:#181818;stroke-width:0.5;" width="84.4741" x="727.2646" y="71.8359"/><text fill="#000000" font-family="Times New Roman" font-size="15" lengthAdjust="spacing" textLength="31.0913" x="753.9561" y="93.7593">Risk</text><text fill="#000000" font-family="Times New Roman" font-size="15" lengthAdjust="spacing" textLength="68.4741" x="735.2646" y="111.2202">Classifier</text><rect fill="#FFFFFF" height="50.9219" rx="7.5" ry="7.5" style="stroke:#181818;stroke-width:0.5;" width="105.7876" x="823.7388" y="71.8359"/><text fill="#000000" font-family="Times New Roman" font-size="15" lengthAdjust="spacing" textLength="89.7876" x="831.7388" y="93.7593">Clarification</text><text fill="#000000" font-family="Times New Roman" font-size="15" lengthAdjust="spacing" textLength="44.3994" x="854.4329" y="111.2202">Agent</text><rect fill="#FFFFFF" height="50.9219" rx="7.5" ry="7.5" style="stroke:#181818;stroke-width:0.5;" width="93.71" x="941.5264" y="71.8359"/><text fill="#000000" font-family="Times New Roman" font-size="15" lengthAdjust="spacing" textLength="77.71" x="949.5264" y="93.7593">Document</text><text fill="#000000" font-family="Times New Roman" font-size="15" lengthAdjust="spacing" textLength="44.3994" x="966.1816" y="111.2202">Agent</text><g><title>Scoping</title><rect fill="#FFFFFF" height="994.2891" style="stroke:#181818;stroke-width:1;" width="10" x="342.7173" y="176.6797"/></g><g><title>Risk Identification</title><rect fill="#FFFFFF" height="33.4609" style="stroke:#181818;stroke-width:1;" width="10" x="635.1602" y="271.5234"/></g><g><title>Risk</title><rect fill="#FFFFFF" height="33.4609" style="stroke:#181818;stroke-width:1;" width="10" x="764.5017" y="399.8281"/></g><g><title>Risk</title><rect fill="#FFFFFF" height="33.4609" style="stroke:#181818;stroke-width:1;" width="10" x="764.5017" y="466.75"/></g><g><title>Clarification</title><rect fill="#FFFFFF" height="33.4609" style="stroke:#181818;stroke-width:1;" width="10" x="871.6326" y="701.9766"/></g><g><title>Document</title><rect fill="#FFFFFF" height="33.4609" style="stroke:#181818;stroke-width:1;" width="10" x="983.3813" y="875.7422"/></g><polygon fill="#000000" points="330.7173,172.6797,340.7173,176.6797,330.7173,180.6797" style="stroke:#000000;stroke-width:1;"/><line style="stroke:#000000;stroke-width:1;" x1="81.0947" x2="336.7173" y1="176.6797" y2="176.6797"/><text fill="#000000" font-family="Times New Roman" font-size="15" lengthAdjust="spacing" textLength="130.8472" x="144.0984" y="152.6812">send initial scope</text><text fill="#000000" font-family="Times New Roman" font-size="15" lengthAdjust="spacing" textLength="240.6226" x="91.5947" y="170.1421">process_request(initial_request)</text><path d="M17.5,191.6797 L276.895,191.6797 L276.895,203.1406 L266.895,213.1406 L10,213.1406 L10,199.1797 A7.5,7.5 0 0 1 17.5,191.6797 " fill="#EEEEEE" style="stroke:#000000;stroke-width:1.5;"/><rect fill="transparent" height="792.9844" rx="7.5" ry="7.5" style="stroke:#000000;stroke-width:1.5;" width="1066.2363" x="10" y="191.6797"/><text fill="#000000" font-family="Times New Roman" font-size="15" font-weight="bold" lengthAdjust="spacing" textLength="219.895" x="26" y="207.603">Iterative Risk Assessment</text><path d="M27.5,220.1406 L103.4893,220.1406 L103.4893,231.6016 L93.4893,241.6016 L20,241.6016 L20,227.6406 A7.5,7.5 0 0 1 27.5,220.1406 " fill="#EEEEEE" style="stroke:#000000;stroke-width:1.5;"/><rect fill="transparent" height="757.5234" rx="7.5" ry="7.5" style="stroke:#000000;stroke-width:1.5;" width="1046.2363" x="20" y="220.1406"/><text fill="#000000" font-family="Times New Roman" font-size="15" font-weight="bold" lengthAdjust="spacing" textLength="36.4893" x="36" y="236.064">loop</text><text fill="#000000" font-family="Times New Roman" font-size="15" font-weight="bold" lengthAdjust="spacing" textLength="102.9126" x="119.4893" y="237.064">[iteration n]</text><polygon fill="#000000" points="623.1602,267.5234,633.1602,271.5234,623.1602,275.5234" style="stroke:#000000;stroke-width:1;"/><line style="stroke:#000000;stroke-width:1;" x1="352.7173" x2="629.1602" y1="271.5234" y2="271.5234"/><text fill="#000000" font-family="Times New Roman" font-size="15" lengthAdjust="spacing" textLength="216.6797" x="385.5989" y="264.9858">identify_risks(current_scope)</text><polygon fill="#000000" points="363.7173,300.9844,353.7173,304.9844,363.7173,308.9844" style="stroke:#000000;stroke-width:1;"/><line style="stroke:#000000;stroke-width:1;stroke-dasharray:2.0,2.0;" x1="357.7173" x2="639.1602" y1="304.9844" y2="304.9844"/><text fill="#000000" font-family="Times New Roman" font-size="15" lengthAdjust="spacing" textLength="112.8223" x="440.0276" y="298.4468">identified_risks</text><path d="M281.9131,319.9844 L546.3179,319.9844 L546.3179,331.4453 L536.3179,341.4453 L274.4131,341.4453 L274.4131,327.4844 A7.5,7.5 0 0 1 281.9131,319.9844 " fill="#EEEEEE" style="stroke:#000000;stroke-width:1.5;"/><rect fill="transparent" height="288.1484" rx="7.5" ry="7.5" style="stroke:#000000;stroke-width:1.5;" width="558.3257" x="274.4131" y="319.9844"/><text fill="#000000" font-family="Times New Roman" font-size="15" font-weight="bold" lengthAdjust="spacing" textLength="224.9048" x="290.4131" y="335.9077">Risk Classification Process</text><path d="M291.9131,348.4453 L367.9023,348.4453 L367.9023,359.9063 L357.9023,369.9063 L284.4131,369.9063 L284.4131,355.9453 A7.5,7.5 0 0 1 291.9131,348.4453 " fill="#EEEEEE" style="stroke:#000000;stroke-width:1.5;"/><rect fill="transparent" height="252.6875" rx="7.5" ry="7.5" style="stroke:#000000;stroke-width:1.5;" width="538.3257" x="284.4131" y="348.4453"/><text fill="#000000" font-family="Times New Roman" font-size="15" font-weight="bold" lengthAdjust="spacing" textLength="36.4893" x="300.4131" y="364.3687">loop</text><text fill="#000000" font-family="Times New Roman" font-size="15" font-weight="bold" lengthAdjust="spacing" textLength="206.5356" x="383.9023" y="365.3687">[for each identified risk]</text><polygon fill="#000000" points="752.5017,395.8281,762.5017,399.8281,752.5017,403.8281" style="stroke:#000000;stroke-width:1;"/><line style="stroke:#000000;stroke-width:1;" x1="352.7173" x2="758.5017" y1="399.8281" y2="399.8281"/><text fill="#000000" font-family="Times New Roman" font-size="15" lengthAdjust="spacing" textLength="298.4473" x="409.3859" y="393.2905">risk_classifier(description, impact_path)</text><polygon fill="#000000" points="363.7173,429.2891,353.7173,433.2891,363.7173,437.2891" style="stroke:#000000;stroke-width:1;"/><line style="stroke:#000000;stroke-width:1;stroke-dasharray:2.0,2.0;" x1="357.7173" x2="768.5017" y1="433.2891" y2="433.2891"/><text fill="#000000" font-family="Times New Roman" font-size="15" lengthAdjust="spacing" textLength="130.6055" x="495.8068" y="426.7515">predicted_impact</text><polygon fill="#000000" points="752.5017,462.75,762.5017,466.75,752.5017,470.75" style="stroke:#000000;stroke-width:1;"/><line style="stroke:#000000;stroke-width:1;" x1="352.7173" x2="758.5017" y1="466.75" y2="466.75"/><text fill="#000000" font-family="Times New Roman" font-size="15" lengthAdjust="spacing" textLength="318.7939" x="399.2125" y="460.2124">risk_classifier(description, likelihood_path)</text><polygon fill="#000000" points="363.7173,496.2109,353.7173,500.2109,363.7173,504.2109" style="stroke:#000000;stroke-width:1;"/><line style="stroke:#000000;stroke-width:1;stroke-dasharray:2.0,2.0;" x1="357.7173" x2="768.5017" y1="500.2109" y2="500.2109"/><text fill="#000000" font-family="Times New Roman" font-size="15" lengthAdjust="spacing" textLength="150.9521" x="485.6334" y="493.6733">predicted_likelihood</text><line style="stroke:#000000;stroke-width:1;" x1="352.7173" x2="394.7173" y1="533.6719" y2="533.6719"/><line style="stroke:#000000;stroke-width:1;" x1="394.7173" x2="394.7173" y1="533.6719" y2="546.6719"/><line style="stroke:#000000;stroke-width:1;" x1="353.7173" x2="394.7173" y1="546.6719" y2="546.6719"/><polygon fill="#000000" points="363.7173,542.6719,353.7173,546.6719,363.7173,550.6719" style="stroke:#000000;stroke-width:1;"/><text fill="#000000" font-family="Times New Roman" font-size="15" lengthAdjust="spacing" textLength="151.7285" x="360.7173" y="527.1343">map_to_level(value)</text><line style="stroke:#000000;stroke-width:1;" x1="352.7173" x2="394.7173" y1="580.1328" y2="580.1328"/><line style="stroke:#000000;stroke-width:1;" x1="394.7173" x2="394.7173" y1="580.1328" y2="593.1328"/><line style="stroke:#000000;stroke-width:1;" x1="353.7173" x2="394.7173" y1="593.1328" y2="593.1328"/><polygon fill="#000000" points="363.7173,589.1328,353.7173,593.1328,363.7173,597.1328" style="stroke:#000000;stroke-width:1;"/><text fill="#000000" font-family="Times New Roman" font-size="15" lengthAdjust="spacing" textLength="256.4429" x="360.7173" y="573.5952">display_risk_analysis(assessment)</text><path d="M37.5,622.1328 L99.4341,622.1328 L99.4341,633.5938 L89.4341,643.5938 L30,643.5938 L30,629.6328 A7.5,7.5 0 0 1 37.5,622.1328 " fill="#EEEEEE" style="stroke:#000000;stroke-width:1.5;"/><rect fill="transparent" height="348.5313" rx="7.5" ry="7.5" style="stroke:#000000;stroke-width:1.5;" width="1026.2363" x="30" y="622.1328"/><text fill="#000000" font-family="Times New Roman" font-size="15" font-weight="bold" lengthAdjust="spacing" textLength="22.4341" x="46" y="638.0562">alt</text><text fill="#000000" font-family="Times New Roman" font-size="15" font-weight="bold" lengthAdjust="spacing" textLength="271.1206" x="115.4341" y="639.0562">[risk_score &gt; RISK_THRESHOLD]</text><path d="M47.5,655.0547 L301.4458,655.0547 L301.4458,666.5156 L291.4458,676.5156 L40,676.5156 L40,662.5547 A7.5,7.5 0 0 1 47.5,655.0547 " fill="#EEEEEE" style="stroke:#000000;stroke-width:1.5;"/><rect fill="transparent" height="308.6094" rx="7.5" ry="7.5" style="stroke:#000000;stroke-width:1.5;" width="1006.2363" x="40" y="655.0547"/><text fill="#000000" font-family="Times New Roman" font-size="15" font-weight="bold" lengthAdjust="spacing" textLength="214.4458" x="56" y="670.978">Risk Clarification Process</text><polygon fill="#000000" points="859.6326,697.9766,869.6326,701.9766,859.6326,705.9766" style="stroke:#000000;stroke-width:1;"/><line style="stroke:#000000;stroke-width:1;" x1="352.7173" x2="865.6326" y1="701.9766" y2="701.9766"/><text fill="#000000" font-family="Times New Roman" font-size="15" lengthAdjust="spacing" textLength="243.1787" x="490.5856" y="695.439">generate_questions(description)</text><polygon fill="#000000" points="363.7173,731.4375,353.7173,735.4375,363.7173,739.4375" style="stroke:#000000;stroke-width:1;"/><line style="stroke:#000000;stroke-width:1;stroke-dasharray:2.0,2.0;" x1="357.7173" x2="875.6326" y1="735.4375" y2="735.4375"/><text fill="#000000" font-family="Times New Roman" font-size="15" lengthAdjust="spacing" textLength="72.6196" x="578.3651" y="728.8999">questions</text><path d="M57.5,750.4375 L133.4893,750.4375 L133.4893,761.8984 L123.4893,771.8984 L50,771.8984 L50,757.9375 A7.5,7.5 0 0 1 57.5,750.4375 " fill="#EEEEEE" style="stroke:#000000;stroke-width:1.5;"/><rect fill="transparent" height="92.8438" rx="7.5" ry="7.5" style="stroke:#000000;stroke-width:1.5;" width="361.0215" x="50" y="750.4375"/><text fill="#000000" font-family="Times New Roman" font-size="15" font-weight="bold" lengthAdjust="spacing" textLength="36.4893" x="66" y="766.3608">loop</text><text fill="#000000" font-family="Times New Roman" font-size="15" font-weight="bold" lengthAdjust="spacing" textLength="162.063" x="149.4893" y="767.3608">[for each question]</text><polygon fill="#000000" points="92.0947,797.8203,82.0947,801.8203,92.0947,805.8203" style="stroke:#000000;stroke-width:1;"/><line style="stroke:#000000;stroke-width:1;" x1="86.0947" x2="341.7173" y1="801.8203" y2="801.8203"/><text fill="#000000" font-family="Times New Roman" font-size="15" lengthAdjust="spacing" textLength="149.6777" x="137.0671" y="795.2827">request clarification</text><polygon fill="#000000" points="330.7173,831.2813,340.7173,835.2813,330.7173,839.2813" style="stroke:#000000;stroke-width:1;"/><line style="stroke:#000000;stroke-width:1;stroke-dasharray:2.0,2.0;" x1="81.0947" x2="336.7173" y1="835.2813" y2="835.2813"/><text fill="#000000" font-family="Times New Roman" font-size="15" lengthAdjust="spacing" textLength="115.6055" x="154.1033" y="828.7437">provide answer</text><polygon fill="#000000" points="971.3813,871.7422,981.3813,875.7422,971.3813,879.7422" style="stroke:#000000;stroke-width:1;"/><line style="stroke:#000000;stroke-width:1;" x1="352.7173" x2="977.3813" y1="875.7422" y2="875.7422"/><text fill="#000000" font-family="Times New Roman" font-size="15" lengthAdjust="spacing" textLength="232.6465" x="551.7261" y="869.2046">update_scope(scope, qa_pairs)</text><polygon fill="#000000" points="363.7173,905.2031,353.7173,909.2031,363.7173,913.2031" style="stroke:#000000;stroke-width:1;"/><line style="stroke:#000000;stroke-width:1;stroke-dasharray:2.0,2.0;" x1="357.7173" x2="987.3813" y1="909.2031" y2="909.2031"/><text fill="#000000" font-family="Times New Roman" font-size="15" lengthAdjust="spacing" textLength="113.8623" x="613.6182" y="902.6655">updated_scope</text><line style="stroke:#000000;stroke-width:1;" x1="352.7173" x2="394.7173" y1="942.6641" y2="942.6641"/><line style="stroke:#000000;stroke-width:1;" x1="394.7173" x2="394.7173" y1="942.6641" y2="955.6641"/><line style="stroke:#000000;stroke-width:1;" x1="353.7173" x2="394.7173" y1="955.6641" y2="955.6641"/><polygon fill="#000000" points="363.7173,951.6641,353.7173,955.6641,363.7173,959.6641" style="stroke:#000000;stroke-width:1;"/><text fill="#000000" font-family="Times New Roman" font-size="15" lengthAdjust="spacing" textLength="244.7314" x="360.7173" y="936.1265">calculate_semantic_similarities()</text><path d="M57.5,998.6641 L235.728,998.6641 L235.728,1010.125 L225.728,1020.125 L50,1020.125 L50,1006.1641 A7.5,7.5 0 0 1 57.5,998.6641 " fill="#EEEEEE" style="stroke:#000000;stroke-width:1.5;"/><rect fill="transparent" height="165.3047" rx="7.5" ry="7.5" style="stroke:#000000;stroke-width:1.5;" width="578.1851" x="50" y="998.6641"/><text fill="#000000" font-family="Times New Roman" font-size="15" font-weight="bold" lengthAdjust="spacing" textLength="138.728" x="66" y="1014.5874">Final Processing</text><line style="stroke:#000000;stroke-width:1;" x1="352.7173" x2="394.7173" y1="1045.5859" y2="1045.5859"/><line style="stroke:#000000;stroke-width:1;" x1="394.7173" x2="394.7173" y1="1045.5859" y2="1058.5859"/><line style="stroke:#000000;stroke-width:1;" x1="353.7173" x2="394.7173" y1="1058.5859" y2="1058.5859"/><polygon fill="#000000" points="363.7173,1054.5859,353.7173,1058.5859,363.7173,1062.5859" style="stroke:#000000;stroke-width:1;"/><text fill="#000000" font-family="Times New Roman" font-size="15" lengthAdjust="spacing" textLength="244.4678" x="360.7173" y="1039.0483">generate_metrics_visualization()</text><line style="stroke:#000000;stroke-width:1;" x1="352.7173" x2="394.7173" y1="1092.0469" y2="1092.0469"/><line style="stroke:#000000;stroke-width:1;" x1="394.7173" x2="394.7173" y1="1092.0469" y2="1105.0469"/><line style="stroke:#000000;stroke-width:1;" x1="353.7173" x2="394.7173" y1="1105.0469" y2="1105.0469"/><polygon fill="#000000" points="363.7173,1101.0469,353.7173,1105.0469,363.7173,1109.0469" style="stroke:#000000;stroke-width:1;"/><text fill="#000000" font-family="Times New Roman" font-size="15" lengthAdjust="spacing" textLength="175.4224" x="360.7173" y="1085.5093">create_final_response()</text><polygon fill="#000000" points="92.0947,1151.9688,82.0947,1155.9688,92.0947,1159.9688" style="stroke:#000000;stroke-width:1;"/><line style="stroke:#000000;stroke-width:1;stroke-dasharray:2.0,2.0;" x1="86.0947" x2="341.7173" y1="1155.9688" y2="1155.9688"/><text fill="#000000" font-family="Times New Roman" font-size="15" lengthAdjust="spacing" textLength="132.2974" x="143.3733" y="1131.9702">return final scope</text><text fill="#000000" font-family="Times New Roman" font-size="15" lengthAdjust="spacing" textLength="177.2461" x="123.283" y="1149.4312">and assessment results</text><!--SRC=[hLPDZzis4BthLn3RYnT83ZdqaaC1hznj5ctJXHtV5X0cvDWUc28PahAx-VKTIhP4HOe313NWBtBcpPl7HrBXICQ1Xrg4-AgHFpt9sDIw2FrCROsL1szh5D4tcCs40oXx9hCNEz0Xdr6uWqR7HslYH-34JrHZ41_nBDQs1fDZu9S6ZSI_CGJOurBJtWY99gBFeXmebUgyoyO-WppklMsCAgssNfmF57CE1p3gx2b6D1D-I-_jkKlxh1adczfS2Ft1qEx1gjU77zHffwJr1hruz-ky21lwYkD9OnK6TAEEF9ZZjsFFu2D9Sc3Yyum83_RVORY857aHrnIEOXa2ArgpaEBPMyc_nQEsvw806Rc9ksr0VoSWY6tXXXBYRYEjOxGNKrhh6HSuketRbEANhlLHV5liIN4Tsf64IDQycEMU_xTPwwVbTzEuXeOGEEz2PJrVWgFyB7WvZxsoiacDvw6hFhJOYhU_SJVlsNf62J8K2RG8t3UA5-CwiIgVR13YuZ9__N-VzACJH6I88jd2YIVsAdCxJPGl1B-qjKvG5sADCErWUh6WJ8G5UY-eq- -ryWmG5hBndWUgbjDzdz1Nvfn-C0dyzjBG1OPGTK1zaCBPt8v-I_gw4ft8LylqaNqZE_OEWnsoMYBL6aLctJ6hD5t9VgKNx7lfoQKwRmJLZgbL3kBXVe8na2udS-oLQzlEe-9JYxlkq2QnUVlbppBLT4HD1slL_yLsGFmfnWci1bT5MsayeLwSG3TuVoDQKN0QEfTLO42_1WeBwFqwpkNTKSpz1XqxfTYU7aMoyERFwjE7zU-R3__yjHfXZ1tcRnji85lodk2jc_OCLks-uvoGhySD-SlbPAuSzaYFTalp6OYn-wyeax1n7rlsL7Tk29ct_zsqRMOJU-8z9i24Cr-5OfAIBycuwehLQvnAshKdoABzV2E-03kNVBYXtMhQ-6hGhWDL7Uej_MPW1XTAqBBHBJlaPm4-jwj0DILz8c5O_DY5wJkzEtSzyYMbhuRYgwiOb-jzL6Dwk0dLYK83chwsAt6fbh7pc89t2PGF_U3OAfX5NLSrDfuVAzhIrwk3dpV4i9au9l3j7rgccJQRyZy0]--></g></svg>